<svg xmlns="http://www.w3.org/2000/svg" width="260" height="120" viewBox="0 0 260 120">
    <g fill="none" fill-rule="evenodd">
        <path fill="#4C8FDB" d="M45 55.5C56 74 21.586 65.718 16.086 92.718 10.586 119.718 33 127 69.5 112.5 106 98 127 115 164 112.5s110 4 92.5-19.782C239 68.937 210 87 191.086 60.218 172.173 33.437 125.5 46.5 85 18.5c-40.5-28-51 18.5-40 37z" opacity=".106"/>
        <path fill="#FDE2D8" d="M18.849 44.927c-.502.015-1.01.023-1.524.023C7.757 44.95 0 42.192 0 38.79c0-2.993 6.002-5.487 13.96-6.044a4.003 4.003 0 0 1-.1-.886c0-2.552 2.413-4.62 5.39-4.62.845 0 1.645.167 2.357.464C22.09 22.256 26.193 18 31.185 18c5.093 0 9.261 4.43 9.602 10.036.262-.017.526-.026.793-.026 3.972 0 7.404 1.958 9.021 4.795a8.791 8.791 0 0 1 1.759-.175c2.863 0 5.27 1.343 5.96 3.162 8.008.407 14.06 2.284 14.06 4.538 0 2.5-7.452 4.538-16.757 4.618-5.089.485-11.418.772-18.278.772-6.959 0-13.371-.296-18.496-.793z"/>
        <path fill="#FFCD00" stroke="#4A4A4A" d="M100.07 40.357V32.42h29.26v51.59H92.37V40.357z"/>
        <path fill="#FFCD00" stroke="#4A4A4A" d="M96.99 36.507V28.57h29.26v51.59H89.29V36.507z"/>
        <path fill="#FFCD00" stroke="#4A4A4A" d="M93.14 32.657V24.72h29.26v51.59H85.44V32.657z"/>
        <path stroke="#4A4A4A" d="M91.6 37.81h25.029M91.6 45.51h18.099M91.6 53.21h12.709M91.6 60.91h10.399M91.6 68.61h10.399"/>
        <path stroke="#4A4A4A" stroke-width=".77" d="M93.14 32.657V24.72h29.26v51.59H85.44V32.657z"/>
        <path stroke="#4A4A4A" d="M93.14 24.72l-7.7 8.085 7.7-8.085z"/>
        <g transform="rotate(4 -525.414 1568.746)">
            <path fill="#4A4A4A" d="M23.025 46.05C10.309 46.05 0 35.741 0 23.025S10.309 0 23.025 0 46.05 10.309 46.05 23.025 35.741 46.05 23.025 46.05zm0-1.85C34.72 44.2 44.2 34.72 44.2 23.025S34.72 1.85 23.025 1.85 1.85 11.33 1.85 23.025 11.33 44.2 23.025 44.2z"/>
            <rect width="31.57" height="11.55" x="39.435" y="42.277" fill="#D84E55" rx="4.62" transform="rotate(36 55.22 48.052)"/>
            <path fill="#FFCD00" d="M65.563 48.429l2.084 1.514a4.62 4.62 0 0 1 1.022 6.453l-1.358 1.869a4.62 4.62 0 0 1-6.453 1.022l-1.87-1.36 6.575-9.498z"/>
            <rect width="30.57" height="10.55" x="39.935" y="42.777" stroke="#4A4A4A" rx="4.62" transform="rotate(36 55.22 48.052)"/>
            <path stroke="#4A4A4A" d="M65.235 48.732l-6.16 8.47"/>
            <path stroke="#4A4A4A" stroke-width="3.85" d="M40.65 37.234l2.406 1.924"/>
            <circle cx="23.025" cy="23.025" r="21.175" fill="#FFF" stroke="#4A4A4A" stroke-width=".77"/>
            <path fill="#F8F4F4" d="M11.09 23.282c1.283-1.284 2.567-2.182 3.85-2.695 1.283-.514 2.567-.77 3.85-.77-.714-1.595-1.356-2.621-1.925-3.08-1.102-.888-2.974-1.651-4.235-.642-2.567 2.053-3.08 4.449-1.54 7.187z"/>
            <path stroke="#4A4A4A" stroke-linecap="round" d="M11.003 23.317c1.341-1.307 2.654-2.217 3.937-2.73 1.283-.514 2.567-.77 3.85-.77-.714-1.595-1.356-2.621-1.925-3.08-1.102-.888-2.644-1.349-4.235-.77"/>
            <path fill="#F8F4F4" d="M35.73 23.282c-1.283-1.284-2.567-2.182-3.85-2.695-1.283-.514-2.567-.77-3.85-.77.714-1.595 1.356-2.621 1.925-3.08 1.102-.888 2.974-1.651 4.235-.642 2.567 2.053 3.08 4.449 1.54 7.187z"/>
            <path stroke="#4A4A4A" stroke-linecap="round" d="M35.73 23.282c-1.283-1.284-2.567-2.182-3.85-2.695-1.283-.514-2.567-.77-3.85-.77.705-1.606 1.347-2.633 1.925-3.08 1.08-.836 2.644-1.349 4.235-.77M17.25 33.42c1.177-2.823 3.23-4.235 6.16-4.235s4.983 1.412 6.16 4.235"/>
            <path fill="#FFCD00" d="M11.092 32.704c1.7 0 3.08-1.952 3.08-3.41 0-.972-1.027-2.916-3.08-5.83-2.053 2.914-3.08 4.858-3.08 5.83 0 1.458 1.379 3.41 3.08 3.41z"/>
            <path fill="#FF8E00" d="M11.303 24.328c1.696 1.683 2.588 3.164 2.678 4.444.134 1.92-1.35 3.547-2.12 3.547s1.083-1.179.847-3.107c-.157-1.285-.625-2.913-1.405-4.884z"/>
            <path stroke="#4A4A4A" d="M11.092 32.704c1.7 0 3.225-1.342 3.08-3.41-.097-1.38-1.123-3.323-3.08-5.83-2.148 2.537-3.174 4.48-3.08 5.83.141 2.023 1.379 3.41 3.08 3.41z"/>
        </g>
        <text fill="#D84E55" font-family="Montserrat-Medium, Montserrat" font-size="30.03" font-weight="400" transform="rotate(4 165.602 648.018)">
            <tspan x="28.49" y="52.94">*</tspan>
        </text>
        <text fill="#4C8FDB" font-family="Montserrat-Light, Montserrat" font-size="18.48" font-weight="300" transform="rotate(4 165.602 648.018)">
            <tspan x="85.774" y="18.032">*</tspan>
        </text>
        <text fill="#FFCD00" font-family="Montserrat-Medium, Montserrat" font-size="29.26" font-weight="400" opacity=".559" transform="rotate(4 165.602 648.018)">
            <tspan x="95.48" y="131.18">*</tspan>
        </text>
        <text fill="#4A4A4A" font-family="Montserrat-Light, Montserrat" font-size="30.03" font-weight="300" opacity=".195" transform="rotate(4 165.602 648.018)">
            <tspan x="114.283" y="51.06">*</tspan>
        </text>
        <text fill="#4A4A4A" font-family="Montserrat-SemiBold, Montserrat" font-size="22.33" font-weight="500" opacity=".114" transform="rotate(4 165.602 648.018)">
            <tspan x="40.81" y="110.55">*</tspan>
        </text>
        <text fill="#4A4A4A" font-family="Montserrat-Light, Montserrat" font-size="22.33" font-weight="300" opacity=".242" transform="rotate(4 165.602 648.018)">
            <tspan x="0" y="122.1">*</tspan>
        </text>
    </g>
</svg>
