<?xml version="1.0" encoding="utf-8"?>
<!-- Generator: Adobe Illustrator 16.0.0, SVG Export Plug-In . SVG Version: 6.00 Build 0)  -->
<!DOCTYPE svg PUBLIC "-//W3C//DTD SVG 1.1//EN" "http://www.w3.org/Graphics/SVG/1.1/DTD/svg11.dtd">
<svg version="1.1" id="Layer_1" xmlns="http://www.w3.org/2000/svg" xmlns:xlink="http://www.w3.org/1999/xlink" x="0px" y="0px"
	 width="9px" height="15px" viewBox="0 0 9 15" enable-background="new 0 0 9 15" xml:space="preserve">
<path fill="#F8F4F4" d="M4.492,0.586c-2.418,0-4.37,1.825-4.37,4.234c0,0.553,0.161,1.381,0.35,1.867L4.5,14.872l4.029-8.185
	c0.188-0.486,0.35-1.314,0.35-1.867C8.878,2.41,6.91,0.586,4.492,0.586L4.492,0.586z M4.5,2.491c1.343,0,2.432,1.066,2.432,2.381
	S5.843,7.252,4.5,7.252s-2.432-1.065-2.432-2.38S3.157,2.491,4.5,2.491z"/>
<path fill="none" d="M-8-3.5h24v24H-8V-3.5z"/>
</svg>
