<svg xmlns="http://www.w3.org/2000/svg" width="20" height="18" viewBox="0 0 20 18">
    <g fill="grey" fill-rule="evenodd">
        <path d="M19.674 9.886c.435-.438.435-1.288-.001-1.727L11.906.329a1.11 1.11 0 0 0-1.58 0 1.132 1.132 0 0 0 0 1.591L17.35 9l-7.023 7.08a1.132 1.132 0 0 0 0 1.59 1.11 1.11 0 0 0 1.58 0l7.767-7.784z"/>
        <path d="M9.674 9.886c.435-.438.435-1.288-.001-1.727L1.906.329a1.11 1.11 0 0 0-1.58 0 1.132 1.132 0 0 0 0 1.591L7.35 9 .327 16.08a1.132 1.132 0 0 0 0 1.59 1.11 1.11 0 0 0 1.58 0l7.767-7.784z"/>
    </g>
</svg>
