<svg xmlns="http://www.w3.org/2000/svg" width="35" height="35" viewBox="0 0 35 35">
    <g fill="none" fill-rule="evenodd" transform="translate(1 1)">
        <circle cx="16.5" cy="16.5" r="16.5" fill="#FFF" stroke="#094D93"/>
        <path fill="#47444C" d="M13.336 11c.27 0 .514.134.615.339.102.205.042.44-.152.594L7.603 17l6.196 5.068c.17.137.238.338.177.527s-.241.336-.472.386a.767.767 0 0 1-.644-.145l-6.666-5.452a.476.476 0 0 1 0-.768l6.666-5.452a.743.743 0 0 1 .476-.165zM18.664 11c-.27 0-.514.134-.615.339-.102.205-.042.44.152.594L24.397 17l-6.196 5.068c-.17.137-.238.338-.177.527s.241.336.472.386c.231.05.477-.005.644-.145l6.666-5.452a.476.476 0 0 0 0-.768l-6.666-5.452a.743.743 0 0 0-.476-.165z"/>
    </g>
</svg>
